<?xml version="1.0" ?><!DOCTYPE svg  PUBLIC '-//W3C//DTD SVG 1.1//EN'  'http://www.w3.org/Graphics/SVG/1.1/DTD/svg11.dtd'><svg enable-background="new 0 0 512 512" height="512px" id="Layer_1" version="1.1" viewBox="0 0 512 512" width="512px" xml:space="preserve" xmlns="http://www.w3.org/2000/svg" xmlns:xlink="http://www.w3.org/1999/xlink"><path d="M511.999,432c0,44.182-35.816,80-80,80H80c-44.183,0-80-35.818-80-80V80C0,35.817,35.817,0,80,0h351.999  c44.184,0,80,35.817,80,80V432z" fill="#E08D2D"/><path d="M511.999,432V328.638L309.53,126.169l-7.956,7.956l-14.211-14.211v5H221v-6.563l-52.662,52.662  l43.965,43.965H212v51.732l-38.985,38.985l79.746,79.746L198,380.602l-81-40.135l-8.151,0.923L279.46,512h152.539  C476.183,512,511.999,476.182,511.999,432z" fill="#D37416"/><g><path d="M362.543,348.854c-1.495-0.012-3.029,0.34-4.452,1.01c-1.618,0.645-3.26,1.387-4.799,2.043l-2.281,0.943   l-2.974,1.18v0.037c-32.187,13.051-65.991,20.703-97.276,21.377c-1.145,0.039-2.3,0.039-3.432,0.039   c-49.186,0.023-89.328-22.797-129.84-45.283c-1.423-0.74-2.847-1.131-4.276-1.131c-1.831,0-3.691,0.674-5.048,1.953   c-1.362,1.277-2.178,3.137-2.165,5.029c-0.006,2.457,1.326,4.707,3.163,6.162c38.013,33.006,79.675,63.672,135.698,63.697   c1.096,0,2.201-0.025,3.326-0.049c35.637-0.803,75.954-12.84,107.233-32.49l0.177-0.129c4.1-2.445,8.199-5.23,12.062-8.32   c2.408-1.787,4.058-4.561,4.032-7.455C371.617,352.334,367.25,348.854,362.543,348.854z" fill="#FFFFFF"/><path d="M405.945,330.633v-0.014c-0.122-3.139-0.791-5.51-2.093-7.492l-0.128-0.184l-0.157-0.193   c-1.326-1.443-2.592-1.99-3.979-2.604c-4.099-1.582-10.071-2.42-17.272-2.447c-5.17,0-10.888,0.488-16.604,1.742l-0.013-0.385   l-5.777,1.928l-0.098,0.049l-3.261,1.059v0.141c-3.818,1.588-7.298,3.564-10.534,5.898c-1.988,1.51-3.673,3.498-3.764,6.545   c-0.05,1.66,0.79,3.564,2.202,4.701c1.393,1.131,3.016,1.504,4.444,1.504c0.341,0,0.652-0.014,0.932-0.061l0.28-0.025l0.219-0.037   c2.821-0.596,6.934-0.998,11.738-1.684c4.123-0.445,8.503-0.791,12.304-0.791c2.688-0.012,5.091,0.17,6.752,0.535   c0.827,0.17,1.44,0.391,1.8,0.566c0.108,0.047,0.188,0.096,0.242,0.127c0.074,0.232,0.178,0.814,0.165,1.652   c0.036,3.184-1.326,9.064-3.163,14.807c-1.8,5.758-3.99,11.525-5.449,15.355c-0.34,0.889-0.559,1.85-0.559,2.908   c-0.025,1.545,0.595,3.406,1.934,4.646c1.301,1.24,2.986,1.721,4.402,1.721h0.067c2.129-0.023,3.93-0.863,5.486-2.08   c14.646-13.166,19.729-34.174,19.937-46.016L405.945,330.633z" fill="#FFFFFF"/><path d="M272.054,189.501c-8.613,0.645-18.539,1.302-28.471,2.616c-15.217,2.007-30.453,4.634-43.019,10.607   c-24.493,9.926-41.042,31.109-41.042,62.215c0,39.064,25.15,58.924,56.928,58.924c10.584,0,19.208-1.34,27.127-3.309   c12.584-3.98,23.173-11.252,35.757-24.512c7.274,9.938,9.269,14.584,21.841,25.168c3.303,1.313,6.61,1.313,9.251-0.656   c7.955-6.631,21.858-18.559,29.133-25.156c3.32-2.652,2.657-6.625,0.656-9.914c-7.261-9.281-14.561-17.23-14.561-35.108v-59.574   c0-25.156,1.996-48.329-16.542-65.516c-15.211-13.892-39.048-19.195-57.586-19.195h-7.949   c-33.744,1.952-69.501,16.525-77.444,58.242c-1.326,5.304,2.652,7.275,5.31,7.932l37.052,4.628c3.996-0.651,5.961-3.978,6.63-7.262   c3.309-14.573,15.218-21.859,28.452-23.185h2.664c7.938,0,16.543,3.32,21.171,9.938c5.299,7.943,4.636,18.544,4.636,27.813v5.303   H272.054z M264.779,268.254c-4.635,9.244-12.584,15.205-21.196,17.23c-1.314,0-3.297,0.65-5.297,0.65   c-14.549,0-23.161-11.264-23.161-27.809c0-21.184,12.577-31.116,28.452-35.75c8.611-1.977,18.539-2.652,28.471-2.652v7.955   C272.054,243.103,272.711,255.005,264.779,268.254z" fill="#FFFFFF"/></g></svg>