<?xml version="1.0" ?><!DOCTYPE svg  PUBLIC '-//W3C//DTD SVG 1.1//EN'  'http://www.w3.org/Graphics/SVG/1.1/DTD/svg11.dtd'><svg enable-background="new 0 0 512 512" height="512px" id="Layer_1" version="1.1" viewBox="0 0 512 512" width="512px" xml:space="preserve" xmlns="http://www.w3.org/2000/svg" xmlns:xlink="http://www.w3.org/1999/xlink"><path d="M511.999,432c0,44.182-35.816,80-80,80H80c-44.183,0-80-35.818-80-80V80C0,35.817,35.818,0,80,0h351.999  c44.184,0,80,35.817,80,80V432z" fill="#C4C4C4"/><path d="M511.999,432V288.312L319.688,96l-50.965,50.967l4.817,4.817l-17.947,17.948l82.329,82.328L184.427,405.556  L290.871,512h141.128C476.183,512,511.999,476.182,511.999,432z" fill="#A8A8A8"/><g><path d="M343.27,265.865c-0.439-40.499,32.98-59.997,34.487-60.941c-18.847-27.481-48.121-31.209-58.551-31.65   c-24.926-2.49-48.603,14.739-61.234,14.755c-12.624,0.018-32.163-14.248-52.815-13.829c-27.169,0.427-52.175,15.852-66.147,40.179   c-28.135,49.009-7.044,121.502,20.498,161.183c13.464,19.397,29.51,41.234,50.56,40.416c20.267-0.817,27.912-13.133,52.395-13.164   c24.49-0.032,31.402,13.053,52.828,12.618c21.808-0.414,35.597-19.847,48.911-39.352c15.405-22.571,21.72-44.412,22.101-45.539   C385.822,330.327,343.764,314.27,343.27,265.865" fill="#FFFFFF"/><path d="M303.038,147.088c11.181-13.534,18.697-32.343,16.639-51.088c-16.088,0.654-35.575,10.725-47.13,24.243   c-10.35,11.978-19.415,31.122-16.965,49.492C273.521,171.123,291.858,160.605,303.038,147.088" fill="#FFFFFF"/></g></svg>