<?xml version="1.0" ?><!DOCTYPE svg  PUBLIC '-//W3C//DTD SVG 1.1//EN'  'http://www.w3.org/Graphics/SVG/1.1/DTD/svg11.dtd'><svg enable-background="new 0 0 512 512" height="512px" id="Layer_1" version="1.1" viewBox="0 0 512 512" width="512px" xml:space="preserve" xmlns="http://www.w3.org/2000/svg" xmlns:xlink="http://www.w3.org/1999/xlink"><path d="M512,80v352c0,44.18-35.82,80-80,80H80c-44.18,0-80-35.82-80-80V80C0,35.82,35.82,0,80,0h352  C476.18,0,512,35.82,512,80z" fill="#DD4B39"/><polygon fill="#07738C" points="-271.566,783.777 -272.004,784.215 -270.783,784.562 "/><polygon fill="#07738C" points="361.996,1805.215 363.217,1805.562 362.434,1804.777 "/><path d="M406.017,184.91l-0.317,0.316l-55.953-55.953l-9.371,9.371v61.23l-70.602-70.602L260.5,131.5L192,136  l-31.5,5l-16,25l9.5,53.5l43,21.5l1,5l7.5,34l-8.5,3l-32,5l-20,7l-23,33l11.74,16.334l-16.725,16.725L267.957,512h49.008h67.77H432  c28.16,0,52.906-14.566,67.162-36.561C507.272,462.928,512,448.02,512,432v-23.695v-0.633v-11.328V371.5v-79.973v-0.634  L406.017,184.91z" fill="#8C251E"/><g><path d="M269.77,129.273h-78.497c-35.175,0-68.28,26.66-68.28,57.531c0,31.567,23.987,57.056,59.802,57.056   l7.251-0.237c-2.307,4.449-3.992,9.448-3.992,14.666c0,8.771,4.724,15.876,10.693,21.68l-13.623,0.146   C139.545,280.098,106,307.874,106,336.641c0,28.362,36.786,46.087,80.365,46.087c49.676,0,77.143-28.198,77.143-56.543   c0-22.723-6.72-36.364-27.467-51.013c-7.067-5.035-20.654-17.249-20.654-24.427c0-8.423,2.398-12.561,15.088-22.448   c12.965-10.145,22.156-24.427,22.156-40.997c0-19.739-8.789-39.002-25.305-45.337h24.865L269.77,129.273z M242.377,321.314   c0.623,2.618,0.952,5.31,0.952,8.093c0,22.925-14.759,40.814-57.129,40.814c-30.121,0-51.855-19.062-51.855-41.986   c0-22.43,26.972-41.106,57.092-40.813c7.031,0.091,13.605,1.208,19.555,3.131C227.326,301.905,239.081,308.332,242.377,321.314z    M194.129,235.841c-20.233-0.586-39.459-22.632-42.938-49.183c-3.479-26.568,10.071-46.893,30.286-46.289   c20.215,0.604,39.441,21.918,42.92,48.469C227.912,215.406,214.325,236.445,194.129,235.841z" fill="#FFFFFF"/><polygon fill="#FFFFFF" points="349.75,184.9 349.75,129.273 331,129.273 331,184.9 274.75,184.9 274.75,203.65 331,203.65    331,260.523 349.75,260.523 349.75,203.65 406,203.65 406,184.9  "/></g></svg>