<?xml version="1.0" ?><!DOCTYPE svg  PUBLIC '-//W3C//DTD SVG 1.1//EN'  'http://www.w3.org/Graphics/SVG/1.1/DTD/svg11.dtd'><svg enable-background="new 0 0 512 512" height="512px" id="Layer_1" version="1.1" viewBox="0 0 512 512" width="512px" xml:space="preserve" xmlns="http://www.w3.org/2000/svg" xmlns:xlink="http://www.w3.org/1999/xlink"><path d="M512,80v352c0,44.18-35.82,80-80,80H80c-44.18,0-80-35.82-80-80V80C0,35.82,35.82,0,80,0h352  C476.18,0,512,35.82,512,80z" fill="#527FA3"/><polygon fill="#07738C" points="-271.566,783.777 -272.004,784.215 -270.783,784.562 "/><polygon fill="#07738C" points="361.996,1805.215 363.217,1805.562 362.434,1804.777 "/><path d="M512,432V219.213L400.98,109.025L371.048,135H136v235.048l-25.633,32.568L219.75,512H432  C476.18,512,512,476.18,512,432z" fill="#255270"/><path d="M392.45,106H119.541c-7.462,0-13.541,6.062-13.541,13.513v272.975c0,7.433,6.079,13.512,13.541,13.512  H392.45c7.471,0,13.55-6.079,13.55-13.512V119.513C406,112.062,399.921,106,392.45,106z M256,203.649  c28.913,0,52.351,23.438,52.351,52.351S284.913,308.351,256,308.351S203.651,284.913,203.651,256S227.087,203.649,256,203.649z   M368.5,368.5h-225V237.25h24.691c-1.29,6.062-2.04,12.322-2.04,18.75c0,49.547,40.309,89.851,89.849,89.851  c49.547,0,89.851-40.304,89.851-89.851c0-6.428-0.753-12.688-2.033-18.75H368.5V368.5z M368.5,199.75h-56.25V143.5h56.25V199.75z" fill="#FFFFFF"/></svg>