<?xml version="1.0" ?><!DOCTYPE svg  PUBLIC '-//W3C//DTD SVG 1.1//EN'  'http://www.w3.org/Graphics/SVG/1.1/DTD/svg11.dtd'><svg enable-background="new 0 0 512 512" height="512px" id="Layer_1" version="1.1" viewBox="0 0 512 512" width="512px" xml:space="preserve" xmlns="http://www.w3.org/2000/svg" xmlns:xlink="http://www.w3.org/1999/xlink"><path d="M512,432c0,44.182-35.816,80-80,80H80c-44.183,0-80-35.818-80-80V80C0,35.817,35.817,0,80,0h352  c44.184,0,80,35.817,80,80V432z" fill="#6099CE"/><path d="M512,432V255.256L384.873,128.128l-4.957,4.957c-4.332-3.597-9.879-5.757-15.924-5.757  c-11.928,0-21.904,8.407-24.455,19.672l-3.934-3.936l-50.207-5.537l-7.49,7.49l-16.051,47.457l13.547,13.546  c-6.641-0.672-13.439-1.021-20.361-1.021c-38.745,0-73.644,10.92-98.116,28.371c-5.475-3.761-12.562-6.037-20.311-6.037  c-17.334,0-31.386,11.361-31.386,25.376c0,10.318,7.623,19.191,18.559,23.158C121.962,281.723,121,287.787,121,294  c0,19.887,9.825,38.246,26.424,53.064l-5.619,5.617L301.125,512H432C476.184,512,512,476.182,512,432z" fill="#457396"/><g><circle cx="303.277" cy="279.086" fill="#F04A23" r="22.658"/><circle cx="209.223" cy="279.086" fill="#F04A23" r="22.658"/><g><g><path d="M416,252.438c0-19.737-15.818-35.77-35.27-35.77c-9.264,0-17.602,3.563-23.943,9.477     c-23.656-16.673-55.861-27.432-91.703-29l16.604-55.364l49.592,9.904c0.143,17.599,14.322,31.85,31.707,31.85     c17.529,0,31.709-14.393,31.709-32.135s-14.18-32.207-31.709-32.207c-13.252,0-24.582,8.265-29.355,19.951l-60.709-12.113     l-20.947,69.971l-5.059,0.142c-35.841,1.568-68.047,12.398-91.704,29c-6.27-5.914-14.678-9.477-23.941-9.477     C111.819,216.668,96,232.7,96,252.438c0,13.965,7.838,26.008,19.31,31.92c-0.57,3.492-0.855,6.984-0.855,10.547     c0.143,54.01,63.486,97.902,141.58,97.902c78.094,0,141.439-43.893,141.439-97.975c0-3.563-0.285-7.055-0.785-10.545     C408.162,278.373,416,266.332,416,252.438z M362.986,131.948c10.547,0,19.096,8.693,19.096,19.381s-8.549,19.381-19.096,19.381     c-10.545,0-19.096-8.693-19.096-19.381S352.441,131.948,362.986,131.948z M108.684,252.438c0-12.684,10.189-22.944,22.659-22.944     c5.13,0,9.904,1.782,13.681,4.703c-12.327,10.829-21.448,23.513-26.364,37.337C112.674,267.33,108.684,260.346,108.684,252.438z      M348.949,353.545c-24.652,17.029-57.643,26.436-92.914,26.436c-35.27,0-68.26-9.406-92.914-26.436     c-23.158-16.031-35.912-36.908-35.912-58.713c0-2.279,0.142-4.631,0.427-6.91c0.499-4.275,1.568-8.48,3.064-12.613     c3.991-11.115,11.4-21.59,21.875-30.924c3.135-2.779,6.555-5.485,10.261-8.051c0.071-0.071,0.213-0.143,0.285-0.214     c24.654-17.029,57.644-26.435,92.914-26.435c35.271,0,68.262,9.406,92.914,26.435c0.072,0.071,0.215,0.143,0.285,0.214     c3.705,2.565,7.127,5.271,10.262,8.051c10.475,9.334,17.885,19.809,21.875,30.924c1.496,4.133,2.494,8.338,3.063,12.613     c0.285,2.279,0.428,4.561,0.428,6.91C384.861,316.637,372.107,337.514,348.949,353.545z M393.412,271.461     c-4.916-13.822-14.037-26.506-26.363-37.336c3.775-2.921,8.551-4.702,13.682-4.702c12.469,0,22.658,10.331,22.658,22.942     C403.389,260.346,399.396,267.33,393.412,271.461z" fill="#FFFFFF"/><path d="M301.994,328.607c-0.143,0.143-17.244,17.242-45.959,17.385c-29.142-0.143-45.886-17.242-46.029-17.385     l-8.978,8.834c0.855,0.855,21.091,21.021,55.007,21.164c33.916-0.143,54.082-20.309,54.938-21.164L301.994,328.607z" fill="#FFFFFF"/></g></g></g></svg>