<?xml version="1.0" ?><!DOCTYPE svg  PUBLIC '-//W3C//DTD SVG 1.1//EN'  'http://www.w3.org/Graphics/SVG/1.1/DTD/svg11.dtd'><svg enable-background="new 0 0 512 512" height="512px" id="Layer_1" version="1.1" viewBox="0 0 512 512" width="512px" xml:space="preserve" xmlns="http://www.w3.org/2000/svg" xmlns:xlink="http://www.w3.org/1999/xlink"><path d="M295.361,1354.591l0.023,0.023c0.005-0.016,0.011-0.03,0.016-0.046  C295.388,1354.576,295.374,1354.583,295.361,1354.591z" fill="#FFFFFF"/><path d="M511.999,432c0,44.183-35.816,80-80,80H80c-44.183,0-80-35.817-80-80V80C0,35.817,35.817,0,80,0h351.999  c44.184,0,80,35.817,80,80V432z" fill="#2AA9E0"/><path d="M426.665,150.142c-12.557,5.57-26.055,9.334-40.219,11.026c14.457-8.666,25.561-22.39,30.789-38.743  c-13.531,8.026-28.518,13.854-44.469,16.993c-12.773-13.609-30.975-22.113-51.115-22.113c-38.674,0-70.029,31.354-70.029,70.027  c0,5.488,0.619,10.833,1.813,15.959c-58.2-2.921-109.801-30.801-144.339-73.168c-6.028,10.342-9.481,22.371-9.481,35.205  c0,24.296,12.362,45.73,31.153,58.289c-11.479-0.365-22.278-3.515-31.719-8.76c-0.007,0.293-0.007,0.585-0.007,0.881  c0,33.928,24.14,62.232,56.174,68.666c-5.875,1.601-12.063,2.457-18.448,2.457c-4.513,0-8.899-0.439-13.177-1.256  c8.912,27.819,34.773,48.068,65.418,48.631c-23.967,18.783-54.162,29.979-86.972,29.979c-5.652,0-11.227-0.331-16.705-0.979  c30.991,19.87,67.801,31.465,107.348,31.465c128.807,0,199.246-106.708,199.246-199.249c0-3.035-0.068-6.055-0.205-9.06  C405.405,176.519,417.278,164.186,426.665,150.142z" fill="#FFFFFF"/><path d="M234.063,512H432c44.184,0,80-35.818,80-80V217.25l-94.779-94.779c-5.234,16.333-16.33,30.039-30.773,38.697  c14.164-1.692,27.662-5.456,40.219-11.026c-9.387,14.044-21.26,26.377-34.943,36.25c0.137,3.005,0.205,6.024,0.205,9.06  c0,92.542-70.439,199.249-199.246,199.249c-39.547,0-76.357-11.594-107.348-31.465" fill="#1A70B7"/></svg>