<?xml version="1.0" ?><!DOCTYPE svg  PUBLIC '-//W3C//DTD SVG 1.1//EN'  'http://www.w3.org/Graphics/SVG/1.1/DTD/svg11.dtd'><svg enable-background="new 0 0 512 512" height="512px" id="Layer_1" version="1.1" viewBox="0 0 512 512" width="512px" xml:space="preserve" xmlns="http://www.w3.org/2000/svg" xmlns:xlink="http://www.w3.org/1999/xlink"><path d="M512,432c0,44.182-35.816,80-80,80H80.001c-44.183,0-80-35.818-80-80V80c0-44.183,35.817-80,80-80H432  c44.184,0,80,35.817,80,80V432z" fill="#E52D27"/><path d="M512,432V299.729L338.324,126.051l-15.755,15.755l-15.755-15.755l-13.313,13.313l10.333,10.333l-7.432,7.433  l-26.713-26.713l-4.928,4.927L225.418,96l-22.5,22.5l-22.5-22.5l-13.313,13.313l22.5,22.5l-7.396,7.396l17.967,17.967  l-12.084,12.084l11.705,11.705l-12.705,12.704l6.919,6.919l-10.067,10.068L244.288,271h-95.954v114.667h28.622l-40.229,15.362  L247.698,512H432C476.184,512,512,476.182,512,432z" fill="#BC1515"/><g><path d="M372.825,255.392c-12.399-12.39-116.875-12.567-116.875-12.551c0-0.017-104.459,0.152-116.896,12.534   c-12.428,12.398-12.462,73.631-12.462,73.986c0,0.465,0.025,61.588,12.462,73.995C151.482,415.729,255.95,416,255.95,416   s104.476-0.271,116.875-12.636c12.482-12.449,12.584-74.003,12.584-74.003C385.409,329.006,385.274,267.79,372.825,255.392z    M203.679,291.456h-17.594v88.943h-17.019v-88.943h-17.593v-15.118h52.205V291.456z M253.408,380.399H238.34v-8.437   c-2.813,3.125-5.691,5.498-8.725,7.111c-3.019,1.646-5.934,2.449-8.771,2.449c-3.505,0-6.099-1.132-7.897-3.43   c-1.74-2.297-2.639-5.692-2.639-10.287v-64.188h15.084v58.902c0,1.824,0.321,3.124,0.925,3.935   c0.667,0.828,1.697,1.226,3.096,1.226c1.11,0,2.524-0.532,4.223-1.631c1.702-1.081,3.243-2.433,4.688-4.104v-58.327h15.084V380.399   z M308.188,364.538c0,5.431-1.191,9.595-3.556,12.5c-2.349,2.905-5.786,4.333-10.271,4.333c-2.965,0-5.583-0.54-7.889-1.655   c-2.306-1.123-4.484-2.838-6.453-5.203v5.887h-15.253V276.338h15.253v33.514c2.062-2.332,4.207-4.131,6.471-5.338   c2.313-1.217,4.628-1.825,6.968-1.825c4.789,0,8.438,1.639,10.937,4.891c2.552,3.277,3.793,8.083,3.793,14.358V364.538z    M360.528,343.871h-28.869v14.443c0,4.045,0.49,6.841,1.47,8.429c1.022,1.554,2.703,2.322,5.119,2.322   c2.499,0,4.247-0.659,5.244-1.984c0.988-1.317,1.512-4.24,1.512-8.759v-3.496h15.524v3.936c0,7.88-1.875,13.809-5.676,17.813   c-3.768,3.97-9.427,5.938-16.943,5.938c-6.757,0-12.094-2.095-15.971-6.326c-3.877-4.197-5.854-10-5.854-17.416v-34.477   c0-6.639,2.163-12.085,6.419-16.267c4.273-4.188,9.764-6.292,16.537-6.292c6.909,0,12.213,1.951,15.93,5.828   c3.716,3.876,5.558,9.451,5.558,16.73V343.871z" fill="#FFFFFF"/><path d="M338.399,315.154c-2.407,0-4.139,0.676-5.186,2.112c-1.047,1.343-1.563,3.665-1.563,6.884v7.744h13.344   v-7.744c0-3.21-0.531-5.532-1.596-6.884C342.386,315.83,340.688,315.154,338.399,315.154z" fill="#FFFFFF"/><path d="M286.347,314.885c-1.089,0-2.152,0.229-3.201,0.743c-1.047,0.499-2.077,1.283-3.107,2.34v47.829   c1.217,1.241,2.415,2.18,3.581,2.711c1.165,0.549,2.364,0.837,3.648,0.837c1.85,0,3.192-0.541,4.063-1.639   c0.87-1.073,1.326-2.813,1.326-5.287V322.79c0-2.602-0.541-4.577-1.604-5.912C289.953,315.552,288.374,314.885,286.347,314.885z" fill="#FFFFFF"/><path d="M301.702,211.861c3.184,0,6.469-0.904,9.855-2.703c3.413-1.781,6.673-4.426,9.781-7.863v9.342h16.993   v-84.586h-17.011v64.188c-1.57,1.858-3.327,3.37-5.236,4.553c-1.908,1.19-3.496,1.782-4.729,1.782   c-1.588,0-2.762-0.448-3.454-1.352c-0.71-0.887-1.099-2.34-1.099-4.342v-64.83h-16.968v70.676c0,5.05,0.997,8.825,2.981,11.343   C294.801,210.595,297.74,211.861,301.702,211.861z" fill="#FFFFFF"/><path d="M251.246,212.765c7.731,0,13.774-2.052,18.218-6.174c4.375-4.139,6.588-9.789,6.588-17.026v-43.684   c0-6.435-2.247-11.714-6.723-15.811c-4.511-4.104-10.283-6.148-17.306-6.148c-7.708,0-13.873,1.951-18.438,5.828   c-4.595,3.885-6.878,9.096-6.87,15.667v43.834c0,7.188,2.242,12.897,6.68,17.154C237.863,210.637,243.822,212.765,251.246,212.765z    M244.205,144.767c0-1.85,0.664-3.345,1.943-4.484c1.31-1.133,2.986-1.698,5.068-1.698c2.233,0,4.05,0.565,5.435,1.698   c1.389,1.14,2.082,2.635,2.082,4.484v46.072c0,2.256-0.676,4.028-2.031,5.347c-1.369,1.284-3.184,1.926-5.485,1.926   c-2.256,0-3.986-0.625-5.186-1.893c-1.205-1.283-1.826-3.074-1.826-5.38V144.767z" fill="#FFFFFF"/><polygon fill="#FFFFFF" points="183.932,210.637 203.07,210.637 203.07,163.068 225.334,96 205.874,96 194.059,141.819    192.859,141.819 180.431,96 161.153,96 183.932,165.215  "/></g></svg>